<svg viewBox="-14 0 512 512.00002" xmlns="http://www.w3.org/2000/svg"><path d="m374.59375 271.308594c0-72.976563-59.15625-132.136719-132.132812-132.136719l-20.015626 330.984375 152.148438-20.015625zm0 0" fill="#c9001c"/><path d="m242.460938 139.171875c-72.976563 0-132.136719 59.160156-132.136719 132.136719v178.832031l132.136719 20.015625zm0 0" fill="#fc0023"/><path d="m276.726562 338.246094c0-18.894532-15.371093-34.269532-34.265624-34.269532l-20.015626 166.179688 54.28125-20.015625zm0 0" fill="#fc0023"/><path d="m208.191406 338.246094v111.894531l34.269532 20.015625v-166.179688c-18.894532 0-34.269532 15.375-34.269532 34.269532zm0 0" fill="#ff7037"/><g fill="#fc0023"><path d="m227.460938 0h30v82.46875h-30zm0 0"/><path d="m15 122.660156 71.417969 41.234375-15 25.980469-71.417969-41.234375zm0 0"/><path d="m469.921875 122.652344 15 25.980468-71.417969 41.234376-15-25.980469zm0 0"/><path d="m119.796875 28.847656 41.234375 71.414063-25.980469 15-41.230469-71.414063zm0 0"/><path d="m365.117188 28.847656 25.980468 15-41.234375 71.414063-25.980469-15zm0 0"/></g><path d="m436.457031 450.140625h-193.996093l-20.015626 30.929687 20.015626 30.929688h193.996093zm0 0" fill="#c8d2dc"/><path d="m48.464844 450.140625h193.996094v61.859375h-193.996094zm0 0" fill="#dce6eb"/></svg>