<svg viewBox="-97 0 512 512" xmlns="http://www.w3.org/2000/svg"><path d="m0 234.765625h159.414062v95.574219h-159.414062zm0 0" fill="#ff7037"/><path d="m159.414062 234.765625h159.410157v95.574219h-159.410157zm0 0" fill="#fc0023"/><path d="m255.039062 95.628906c0-52.816406-42.8125-95.628906-95.625-95.628906l-20.015624 468.230469 115.640624-20.015625zm0 0" fill="#c9001c"/><path d="m159.414062 0c-52.816406 0-95.628906 42.8125-95.628906 95.628906v352.585938l95.628906 20.015625zm0 0" fill="#fc0023"/><path d="m287.867188 101.890625h-128.453126l-10.007812 15 10.007812 15h128.453126zm0 0" fill="#fc0023"/><path d="m30.957031 101.890625h128.457031v30h-128.457031zm0 0" fill="#ff7037"/><path d="m159.414062 203.050781-20.015624 79.5 20.015624 79.5c43.835938 0 79.5-35.664062 79.5-79.5 0-43.835937-35.664062-79.5-79.5-79.5zm0 0" fill="#fc0023"/><path d="m79.914062 282.550781c0 43.835938 35.664063 79.5 79.5 79.5v-159c-43.839843 0-79.5 35.664063-79.5 79.5zm0 0" fill="#ff7037"/><path d="m191.632812 282.550781c0-17.792969-14.425781-32.21875-32.21875-32.21875l-20.015624 32.21875 20.015624 32.222657c17.792969 0 32.21875-14.425782 32.21875-32.222657zm0 0" fill="#c9001c"/><path d="m127.191406 282.550781c0 17.796875 14.425782 32.222657 32.222656 32.222657v-64.441407c-17.796874 0-32.222656 14.425781-32.222656 32.21875zm0 0" fill="#fc0023"/><path d="m286.933594 512v-63.785156h-127.519532l-20.015624 31.890625 20.015624 31.894531zm0 0" fill="#fc0023"/><path d="m31.894531 448.214844h127.519531v63.785156h-127.519531zm0 0" fill="#ff7037"/></svg>