<svg viewBox="0 -31 512 511" xmlns="http://www.w3.org/2000/svg"><path d="m448.214844 282.6875h-192.214844l-20.015625 31.894531 20.015625 31.890625h192.214844zm0 0" fill="#c8d2dc"/><path d="m63.785156 282.6875h192.214844v63.785156h-192.214844zm0 0" fill="#dce6eb"/><path d="m31.894531.5h63.785157v448.214844h-63.785157zm0 0" fill="#c8d2dc"/><path d="m416.320312.5h63.785157v448.214844h-63.785157zm0 0" fill="#a2abb8"/><path d="m391.375 180.449219h120.625v-116.164063l-83.5 46.320313zm0 0" fill="#2d2d2d"/><path d="m414.15625 64.285156-88.65625 54.820313-31.96875 61.34375h97.84375l120.625-116.164063zm0 0" fill="#ffcd00"/><path d="m316.3125 64.285156-88.8125 54.820313-31.8125 61.34375h97.84375l120.625-116.164063zm0 0" fill="#2d2d2d"/><path d="m218.46875 64.285156-89.96875 55.820313-30.65625 60.34375h97.84375l120.625-116.164063zm0 0" fill="#fff04a"/><path d="m120.625 64.285156-69.625 48.820313-51 67.34375h97.84375l120.625-116.164063zm0 0" fill="#5a5a5a"/><path d="m0 64.285156v116.164063l120.625-116.164063zm0 0" fill="#fff04a"/></svg>