<?xml version='1.0' encoding='utf-8'?>
<svg xmlns="http://www.w3.org/2000/svg" version="1.1" width="600px" height="976px" viewBox="0 0 600 976"> <g id="layer1"> <g style="fill:rgb(0,0,0); fill-opacity:1.0; stroke-linejoin: miter"> <path d="M196.7405,535.5473C196.76039,535.5643,196.77818,535.5816,196.78647,535.6071C196.79485,535.6328,196.79369,535.6672,196.79124,535.70374L196.73741,535.6187L196.74039,535.5473L196.7405,535.5473 Z M196.49844,535.41693C196.53067,535.48035,196.56026,535.54315,196.57677,535.603C196.59326,535.6631,196.5967,535.72034,196.59764,535.77765L196.49835,535.417L196.49844,535.41693 Z M194.49132,535.5151C194.52744,535.5893,194.56386,535.66376,194.60957,535.73145C194.65512,535.7987,194.70978,535.8587,194.76436,535.91846L194.7643,535.91846L194.57726,536.0526C194.58882,536.0049,194.59798,535.9555,194.57289,535.90967C194.55904,535.8844,194.53471,535.86035,194.50978,535.83563C194.48557,535.8115,194.46057,535.78656,194.44191,535.7583C194.40381,535.7007,194.39236,535.6287,194.40567,535.58594C194.4182,535.54565,194.45294,535.53033,194.49126,535.5151 Z M194.30882,536.22614L194.30434,536.2266L194.30434,536.2266L194.30882,536.22614 Z M196.63304,536.3123C196.73874,536.4136,196.83885,536.51154,196.88747,536.5838C196.93608,536.6559,196.93272,536.7018,196.92485,536.7458L196.63295,536.3123L196.63304,536.3123 Z M195.66661,540.87256L195.66759,540.8957L195.66759,540.8957L195.66661,540.87256 Z M196.34502,538.5093C196.38893,538.55646,196.43445,538.6068,196.52383,538.747C196.61658,538.8926,196.75648,539.13446,196.89658,539.3769L196.8965,539.37695C196.88849,539.42523,196.88065,539.47516,196.9123,539.5299C196.94337,539.5836,197.01244,539.6417,197.08112,539.6989L197.08102,539.6989C197.06404,539.72003,197.04694,539.74225,197.03822,539.77216C197.02937,539.80237,197.02916,539.84033,197.02924,539.8775L197.02914,539.8775C196.94572,539.94037,196.86215,540.0035,196.77742,540.07965C196.6923,540.1562,196.60612,540.2462,196.52008,540.3362L196.51898,540.3372C196.51743,540.3387,196.51709,540.34125,196.5181,540.34314L196.53528,540.3759L195.6783,540.93066L195.67824,540.929L195.67818,540.929C195.67886,540.9282,195.67924,540.9268,195.67918,540.9256L195.67789,540.8953L195.67783,540.8903C195.67783,540.88983,195.67776,540.8894,195.67764,540.88916L195.67757,540.88916L195.67532,540.8361C195.67523,540.8347,195.67464,540.8334,195.67363,540.8326L195.44202,540.6209L195.27484,540.2784L195.27478,540.2784C195.33565,540.2446,195.39636,540.2104,195.43193,540.03033C195.46689,539.85345,195.47783,539.5346,195.48851,539.21466L195.48843,539.2147C195.48863,539.21466,195.4889,539.21454,195.48914,539.2144C195.596,539.1765,195.70337,539.1385,195.847,539.0199C195.98927,538.9024,196.1672,538.706,196.34492,538.5093 Z M195.31544,533.23065C195.29593,533.229,195.27663,533.228,195.25748,533.2276C195.10118,533.2249,194.9553,533.2653,194.81029,533.30585C194.80997,533.3057,194.80965,533.3056,194.80928,533.3056C194.80917,533.3056,194.80899,533.3056,194.8089,533.3057C194.80743,533.30554,194.80592,533.30634,194.80492,533.30743L194.80486,533.30743L194.8048,533.30743C194.80205,533.3082,194.80046,533.31104,194.80125,533.3137L194.80125,533.3137C194.77036,533.369,194.73799,533.42285,194.64436,533.4654C194.63132,533.4714,194.61702,533.47705,194.60168,533.4833C194.50253,533.52313,194.36443,533.579,194.26396,533.8096C194.1486,534.07477,194.08267,534.57184,194.01701,535.0678L194.01672,535.0698L194.01666,535.0698C193.96005,535.26495,193.90329,535.46075,193.89583,535.6437C193.88838,535.8267,193.93036,535.9978,194.00677,536.09503C194.07535,536.1822,194.17128,536.2092,194.26845,536.2296L194.26836,536.2296L194.00436,536.2523C194.00368,536.2505,194.00194,536.24927,194.00002,536.249C193.9999,536.249,193.99979,536.249,193.99966,536.2491C193.99928,536.249,193.99881,536.249,193.99837,536.2492C193.83644,536.2888,193.67232,536.3291,193.56004,536.49866C193.45514,536.6573,193.39575,536.929,193.3394,537.20636L193.34311,536.8193C193.34314,536.8171,193.34167,536.8152,193.33954,536.81433L192.44922,536.53235C192.4489,536.5322,192.44852,536.5321,192.44817,536.532C192.44801,536.532,192.44789,536.5321,192.44772,536.532L192.44772,536.532L192.0971,536.53015C192.09428,536.5301,192.09204,536.5324,192.09201,536.53516C192.09198,536.537,192.09293,536.5387,192.09439,536.5396L192.09435,536.5396L192.09763,538.8382L192.09753,538.8382C192.06534,538.8396,192.03302,538.841,192.00441,538.845C191.97307,538.84937,191.94533,538.8569,191.92702,538.8717C191.89148,538.89984,191.89407,538.9529,191.8965,539.00183L191.89644,539.00183C191.83171,539.0763,191.76639,539.1516,191.74283,539.2018C191.71869,539.2532,191.73776,539.2793,191.75647,539.3034L191.75647,539.3034L191.7541,539.4064L191.75406,539.4064C191.7313,539.4322,191.70558,539.4612,191.71146,539.4885C191.71715,539.5151,191.75246,539.53815,191.78519,539.5591L191.78513,539.5591C191.7769,539.5992,191.76875,539.64105,191.7807,539.6791C191.79295,539.7181,191.8259,539.7529,191.8577,539.7866L191.85767,539.7866C191.8805,539.8402,191.90416,539.89606,191.94725,539.9238C191.97122,539.9392,192.0009,539.946,192.03278,539.94885C192.04468,539.95,192.0569,539.9504,192.06914,539.9506C192.08208,539.9509,192.09506,539.95087,192.10799,539.9507L192.10805,539.9507L192.09866,540.2255C192.0986,540.228,192.10043,540.2303,192.10297,540.2305L192.86894,540.35535L192.86891,540.35535C192.83836,540.3893,192.80809,540.4256,192.7954,540.5064C192.78235,540.5897,192.78796,540.721,192.7935,540.8513L192.7935,540.8513C192.74643,541.08594,192.69926,541.3211,192.70522,541.50507C192.71118,541.6887,192.7701,541.821,192.82896,541.95184L192.82884,541.95184C192.82,541.98395,192.81107,542.0172,192.81425,542.0521C192.81744,542.0875,192.83286,542.1248,192.84796,542.1611L192.84789,542.1611C192.83365,542.26624,192.81946,542.37195,192.81892,542.47986C192.81827,542.5878,192.83138,542.6985,192.84442,542.8086L192.84436,542.8086C192.82378,542.8711,192.80276,542.9346,192.80164,542.9739C192.8004,543.0153,192.82068,543.0309,192.83948,543.0453L192.83966,543.0454C192.83989,543.04553,192.84013,543.0457,192.84045,543.04584L192.8404,543.04584C192.84073,543.1964,192.84187,543.35364,192.88075,543.7993L192.8808,543.7993Q194.19476,543.96796,195.81941,544.1853L195.81941,544.1853L195.78598,543.22394L195.78896,543.22266L195.78905,543.22266C195.7892,543.2227,195.78937,543.2227,195.78949,543.2227C195.78966,543.22266,195.78978,543.2227,195.78984,543.2227C195.79044,543.22296,195.79091,543.22266,195.79146,543.2225C195.82797,543.2114,195.8637,543.1989,195.87462,543.0832C195.88542,542.9688,195.87247,542.75104,195.85966,542.5344L195.8596,542.5342C195.847,542.39166,195.8344,542.2493,195.8323,542.1451C195.83156,542.1099,195.83206,542.07886,195.8325,542.0509C195.83289,542.028,195.83322,542.0069,195.83281,541.98737C195.83228,541.9604,195.83038,541.936,195.82521,541.9119C195.81805,541.8784,195.8046,541.84625,195.79076,541.813C195.77863,541.7837,195.76605,541.7537,195.75667,541.7206C195.73648,541.64923,195.73058,541.5635,195.72467,541.4771C195.72455,541.4751,195.72328,541.47345,195.72154,541.4728L195.72145,541.4728L195.72092,541.4678L195.72083,541.46765C196.03787,541.3353,196.3545,541.20306,196.58362,541.098C196.81223,540.9933,196.95366,540.9159,197.09431,540.8385L197.0944,540.83856L197.17839,540.9249L197.17831,540.9249C197.17816,540.9261,197.17848,540.9276,197.17934,540.9286C197.1802,540.9299,197.18155,540.93054,197.18294,540.9306C197.18309,540.93066,197.18323,540.93066,197.18332,540.9308C197.18391,540.9308,197.18456,540.93066,197.18512,540.93036L197.1852,540.93036C197.18541,540.93036,197.18561,540.93036,197.18582,540.9304C197.18713,540.9304,197.18846,540.93005,197.18947,540.92896C197.19026,540.9282,197.19073,540.92737,197.19095,540.9264L197.19083,540.9263C197.28334,540.856,197.37585,540.7854,197.4323,540.72644C197.48889,540.6677,197.50945,540.6206,197.52908,540.5742L197.52908,540.5742L197.52899,540.5742C197.57896,540.5676,197.62958,540.5605,197.68895,540.5391C197.7494,540.51715,197.81918,540.48047,197.86816,540.43353C197.91663,540.387,197.94444,540.3309,197.97159,540.27545L197.97151,540.27545C198.01497,540.25867,198.0592,540.2413,198.10297,540.20514C198.14716,540.1687,198.19075,540.11316,198.23392,540.0584C198.23521,540.0567,198.23534,540.0545,198.23442,540.05286L198.23442,540.05286L198.23433,540.05286C198.23453,540.05206,198.23459,540.0513,198.23447,540.0504C198.19217,539.7846,198.1497,539.51807,198.02963,539.2241C197.9488,539.0268,197.83286,538.8168,197.70648,538.5983C197.6761,538.5459,197.64508,538.4927,197.6138,538.43945C197.58205,538.3848,197.54999,538.3301,197.51796,538.2747C197.32437,537.94006,197.13377,537.5901,196.94318,537.2397L196.94185,537.2375L196.9523,537.1025L196.95216,537.1025C196.95279,537.10187,196.95325,537.1012,196.9534,537.1001C196.98343,536.9456,197.01367,536.78955,196.97318,536.62115C196.93318,536.45483,196.82428,536.27637,196.71523,536.0991L196.71513,536.0991C196.75261,536.04944,196.79008,535.99945,196.81496,535.9425C196.84065,535.8836,196.85277,535.81793,196.86475,535.753C196.86505,535.75146,196.86464,535.7499,196.86377,535.74884L196.86365,535.74884C196.87474,535.6449,196.88522,535.53937,196.85223,535.46625C196.84697,535.45447,196.84055,535.4436,196.8328,535.43365C196.81671,535.4127,196.79501,535.39636,196.77072,535.37756C196.73715,535.352,196.69765,535.32166,196.65738,535.2697C196.63196,535.2367,196.60616,535.19507,196.58142,535.14014L196.58142,535.14014L196.58142,535.14014C196.573,535.1214,196.56459,535.1011,196.55644,535.0789C196.51945,534.9792,196.48616,534.8442,196.4493,534.695C196.4039,534.5112,196.3532,534.30585,196.28377,534.1184C196.26677,534.07245,196.24864,534.02783,196.22919,533.98456C196.2224,533.9695,196.21544,533.95447,196.20831,533.9399C196.0298,533.57306,195.74464,533.3486,195.49266,533.2669C195.4318,533.247,195.37285,533.2357,195.31544,533.23065 Z"/> </g> <g style="fill:rgb(0,0,0); fill-opacity:1.0; stroke-linejoin: miter"> <path d="M180.99814,537.4763C181.13315,537.412,181.18747,537.4314,181.10687,537.51483C181.03839,537.5925,180.92215,537.6328,180.86783,537.61346C180.80127,537.6,180.85724,537.5282,180.99814,537.4763 Z"/> </g> <g style="fill:rgb(0,0,0); fill-opacity:1.0; stroke-linejoin: miter"> <path d="M178.94298,533.7879C179.07799,533.72375,179.13231,533.743,179.05168,533.8265C178.98323,533.9043,178.86693,533.9445,178.8126,533.9253C178.74605,533.91174,178.8022,533.8399,178.94298,533.7879 Z"/> </g> <g style="fill:rgb(0,0,0); fill-opacity:1.0; stroke-linejoin: miter"> <path d="M180.44885,537.58704C180.58386,537.5228,180.63818,537.5422,180.55746,537.6256C180.4891,537.70325,180.3728,537.7435,180.31848,537.72424C180.25195,537.71075,180.30795,537.639,180.44885,537.58704 Z"/> </g> <g style="fill:rgb(0,0,0); fill-opacity:1.0; stroke-linejoin: miter"> <path d="M178.51042,534.1442C178.64543,534.08,178.69975,534.0993,178.61903,534.18286C178.55067,534.2605,178.43437,534.3008,178.38008,534.2814C178.31337,534.26807,178.36955,534.19617,178.51042,534.1442 Z"/> </g> <g style="fill:rgb(0,0,0); fill-opacity:1.0; stroke-linejoin: miter"> <path d="M181.25217,541.55444C181.27676,541.5427,181.42154,541.5943,181.56595,541.67615C181.81311,541.7843,181.80664,541.8024,181.53436,541.7363C181.26212,541.6701,181.15393,541.60114,181.25217,541.55444 Z"/> </g> <g style="fill:rgb(0,0,0); fill-opacity:1.0; stroke-linejoin: miter"> <path d="M178.07777,534.5005C178.21281,534.4362,178.26714,534.4556,178.18654,534.539C178.11806,534.6168,178.00175,534.65704,177.9474,534.63776C177.88087,534.62427,177.93703,534.55237,178.07777,534.5005 Z"/> </g> <g style="fill:rgb(0,0,0); fill-opacity:1.0; stroke-linejoin: miter"> <path d="M176.08154,530.9046C176.20218,530.6516,176.22021,530.65796,176.15402,530.9303C176.08783,531.2026,176.01883,531.31067,175.97221,531.2124C175.9605,531.18787,176.012,531.04297,176.08154,530.9046 Z"/> </g> <g style="fill:rgb(0,0,0); fill-opacity:1.0; stroke-linejoin: miter"> <path d="M180.68887,541.4461C180.88226,541.5046,181.05112,541.57477,181.0686,541.61163C181.08609,541.6485,180.94077,541.62726,180.74731,541.5688C180.55386,541.51025,180.38507,541.44006,180.3675,541.40326C180.3501,541.3664,180.49554,541.3875,180.68887,541.4461 Z"/> </g> <g style="fill:rgb(0,0,0); fill-opacity:1.0; stroke-linejoin: miter"> <path d="M179.8742,535.58765C182.95497,534.1223,184.5313,533.41766,184.52309,533.5269C184.50658,533.7455,175.33786,538.1064,175.25613,537.9345C175.22107,537.8609,176.84248,537.02954,179.8742,535.58765 Z"/> </g> <g style="fill:rgb(0,0,0); fill-opacity:1.0; stroke-linejoin: miter"> <path d="M176.11424,536.03625C177.44237,534.9683,178.24968,534.41876,177.56856,535.0437C176.98631,535.5915,174.88713,537.2221,174.79652,537.18994C174.76036,537.17706,175.35439,536.6536,176.11424,536.03625 Z"/> </g> <g style="fill:rgb(0,0,0); fill-opacity:1.0; stroke-linejoin: miter"> <path d="M175.50998,538.62646C175.66257,538.59906,176.73727,538.3589,177.8974,538.1081C179.79599,537.7017,180.36938,537.6097,180.06247,537.7556C179.80472,537.8782,175.68399,538.7393,175.47195,538.70483C175.28375,538.68896,175.29028,538.6708,175.50998,538.62646 Z"/> </g> <g style="fill:rgb(0,0,0); fill-opacity:1.0; stroke-linejoin: miter"> <path d="M174.72246,535.705C175.1476,535.11145,176.20708,533.79474,177.0659,532.7842C177.92473,531.77374,178.92691,530.5898,179.28186,530.16516C180.564,528.6523,180.08215,529.348,178.01701,532.03094C175.8647,534.8156,174.15858,536.86115,174.01381,536.80963C173.96532,536.8026,174.28511,536.3044,174.72246,535.705 Z"/> </g> <g style="fill:rgb(0,0,0); fill-opacity:1.0; stroke-linejoin: miter"> <path d="M174.4059,534.18494C175.79796,531.4157,175.8611,531.29535,175.89027,531.3567C175.93114,531.4427,174.91057,533.56866,174.20988,534.8802C173.87529,535.5058,173.58586,536.00476,173.56828,535.9679C173.55083,535.9312,173.93748,535.1302,174.4059,534.18494 Z"/> </g> <g style="fill:rgb(0,0,0); fill-opacity:1.0; stroke-linejoin: miter"> <path d="M175.68784,539.4751C176.44928,539.3988,184.73419,539.477,184.7143,539.5616C184.67621,539.64,178.25351,539.77484,176.84418,539.7229C175.29507,539.66187,174.7984,539.567,175.68784,539.4751 Z"/> </g> <g style="fill:rgb(0,0,0); fill-opacity:1.0; stroke-linejoin: miter"> <path d="M175.91235,540.4218C177.03946,540.6082,180.02338,541.28094,180.16129,541.3809C180.26938,541.44995,180.23248,541.46747,180.06311,541.4276C177.60501,540.9111,176.37631,540.63763,175.86853,540.4878L175.25787,540.31165L175.91235,540.4218 Z"/> </g> <g style="fill:rgb(0,0,0); fill-opacity:1.0; stroke-linejoin: miter"> <path d="M165.02327,548.47546C165.75735,547.0127,166.92719,544.72546,167.08392,544.48535C167.41599,543.9813,166.6228,545.66785,165.63742,547.5514C164.52492,549.7059,164.12956,550.33044,165.02327,548.47546 Z"/> </g> <g style="fill:rgb(0,0,0); fill-opacity:1.0; stroke-linejoin: miter"> <path d="M164.28778,544.4607C165.23306,543.6951,166.0416,543.0849,166.0835,543.1099C166.19229,543.1486,162.89355,545.8012,162.7229,545.8221C162.63754,545.8327,163.3489,545.20825,164.28778,544.4607 Z"/> </g> <g style="fill:rgb(0,0,0); fill-opacity:1.0; stroke-linejoin: miter"> <path d="M213.49876,544.75714C214.35326,543.78925,215.30685,542.77454,215.60156,542.4981C216.11687,542.0211,216.11687,542.0211,215.48512,542.76154C214.68604,543.7203,212.0635,546.51074,211.99577,546.5053C211.95511,546.5021,212.63185,545.7107,213.49876,544.75714 Z"/> </g> <g style="fill:rgb(0,0,0); fill-opacity:1.0; stroke-linejoin: miter"> <path d="M161.0105,542.633C161.14551,542.5688,162.17749,542.3338,163.31888,542.1071C164.45386,541.8985,165.15506,541.7907,164.86752,541.8823C164.18845,542.1,160.69128,542.7849,161.0105,542.633 Z"/> </g> <g style="fill:rgb(0,0,0); fill-opacity:1.0; stroke-linejoin: miter"> <path d="M164.33894,549.88464C164.45943,549.63165,164.47758,549.63806,164.41142,549.9103C164.34529,550.1826,164.27626,550.2908,164.22963,550.1925C164.21794,550.16797,164.26936,550.0231,164.33894,549.88464 Z"/> </g> <g style="fill:rgb(0,0,0); fill-opacity:1.0; stroke-linejoin: miter"> <path d="M160.46753,542.7257C160.60254,542.66144,160.65686,542.68085,160.57614,542.76434C160.50775,542.84204,160.39145,542.8823,160.33713,542.863C160.27051,542.8496,160.32663,542.77765,160.46753,542.7257 Z"/> </g> <g style="fill:rgb(0,0,0); fill-opacity:1.0; stroke-linejoin: miter"> <path d="M161.91498,546.402C162.05005,546.3377,162.10437,546.35706,162.02365,546.44055C161.95526,546.51825,161.83902,546.55853,161.78467,546.5392C161.71802,546.5259,161.77414,546.454,161.91498,546.402 Z"/> </g> <g style="fill:rgb(0,0,0); fill-opacity:1.0; stroke-linejoin: miter"> <path d="M159.36888,542.9474C159.50395,542.8832,159.55824,542.90247,159.47752,542.9861C159.4092,543.06366,159.29286,543.104,159.23854,543.08466C159.17189,543.07117,159.22804,542.9994,159.36888,542.9474 Z"/> </g> <g style="fill:rgb(0,0,0); fill-opacity:1.0; stroke-linejoin: miter"> <path d="M163.28882,547.6449C165.70184,544.5858,167.0022,543.0794,166.67284,543.74774C166.4201,544.2291,165.04785,545.99554,163.2927,548.0645C161.13872,550.62415,160.83409,550.96466,160.79912,550.891C160.78157,550.8542,161.89844,549.405,163.28882,547.6449 Z"/> </g> <g style="fill:rgb(0,0,0); fill-opacity:1.0; stroke-linejoin: miter"> <path d="M155.7615,540.9004C155.84155,540.84735,156.62636,540.8202,158.40807,540.8006C158.94334,540.78674,159.88005,540.7626,160.48833,540.7442C161.96672,540.68835,165.509,540.79443,165.4646,540.89087C165.41312,541.0357,162.84007,541.10065,159.30965,541.0189C157.31642,540.9736,155.72473,540.9179,155.7615,540.9004 Z"/> </g> <g style="fill:rgb(0,0,0); fill-opacity:1.0; stroke-linejoin: miter"> <path d="M160.8371,544.64197C163.93018,543.171,165.50644,542.4664,165.49823,542.57574C165.48422,542.67267,163.83826,543.5158,160.95389,544.8875C158.06946,546.25946,156.37686,547.0042,156.29276,546.95386C156.2027,546.8914,157.74399,546.1131,160.8371,544.64197 Z"/> </g> <g style="fill:rgb(0,0,0); fill-opacity:1.0; stroke-linejoin: miter"> <path d="M177.78822,546.0068C177.84557,546.02277,177.86662,546.2162,177.87645,546.6891L177.89,547.3441L177.67265,547.30884C177.47826,547.2785,176.93791,547.05597,176.84474,546.9612C176.7809,546.90533,177.70207,545.9743,177.78822,546.0068 Z"/> </g> <g style="fill:rgb(0,0,0); fill-opacity:1.0; stroke-linejoin: miter"> <path d="M179.29576,546.4203L179.77266,546.88336L179.41747,547.0675C179.22005,547.1685,178.97133,547.2704,178.86922,547.28973L178.68755,547.3276L178.67403,546.6724C178.66374,546.17676,178.67741,546.01117,178.73958,545.987C178.7848,545.96924,179.01079,546.1467,179.29576,546.4203 Z"/> </g> <g style="fill:rgb(0,0,0); fill-opacity:1.0; stroke-linejoin: miter"> <path d="M178.40773,545.6463C178.43178,545.7085,178.40465,545.7717,178.343,545.8243C178.25316,545.8889,178.22466,545.8896,178.15486,545.8226C178.10841,545.77795,178.08397,545.6987,178.10008,545.6528C178.14317,545.5321,178.35966,545.5278,178.40773,545.6463 Z"/> </g> <g style="fill:rgb(0,0,0); fill-opacity:1.0; stroke-linejoin: miter"> <path d="M177.08525,545.36017C177.12059,545.4165,176.29616,546.33984,176.20494,546.34143C176.15367,546.3428,175.82657,545.68256,175.7768,545.47864L175.73944,545.3254L176.38892,545.312C176.80484,545.30334,177.05597,545.32104,177.08525,545.36017 Z"/> </g> <g style="fill:rgb(0,0,0); fill-opacity:1.0; stroke-linejoin: miter"> <path d="M180.69847,545.3483C180.70082,545.4622,180.41905,546.169,180.34096,546.2504C180.30186,546.29114,179.38872,545.4039,179.38707,545.32416C179.38597,545.267,179.55083,545.24664,180.04076,545.2363C180.68452,545.22314,180.6959,545.2228,180.69847,545.3483 Z"/> </g> <g style="fill:rgb(0,0,0); fill-opacity:1.0; stroke-linejoin: miter"> <path d="M177.53557,544.80945C177.55357,544.8548,177.52687,544.9407,177.47664,544.9931C177.39296,545.08044,177.3816,545.0806,177.29436,544.9968C177.17223,544.8795,177.226,544.7244,177.37987,544.7217C177.44246,544.7203,177.51167,544.7586,177.53557,544.80945 Z"/> </g> <g style="fill:rgb(0,0,0); fill-opacity:1.0; stroke-linejoin: miter"> <path d="M179.24461,544.7742C179.26268,544.8194,179.23601,544.90533,179.18578,544.9578C179.10213,545.045,179.09065,545.0451,179.00352,544.96155C178.8813,544.84424,178.93507,544.68933,179.08894,544.6861C179.15166,544.68475,179.22081,544.72314,179.24461,544.7742 Z"/> </g> <g style="fill:rgb(0,0,0); fill-opacity:1.0; stroke-linejoin: miter"> <path d="M178.47096,544.5678C178.65196,544.775,178.64586,545.03156,178.44911,545.1668C178.23567,545.31915,177.84404,545.1222,177.83876,544.8659C177.83238,544.5583,178.27266,544.34973,178.47096,544.5678 Z"/> </g> <g style="fill:rgb(0,0,0); fill-opacity:1.0; stroke-linejoin: miter"> <path d="M178.3724,543.9373C178.39047,543.9825,178.36375,544.0684,178.31352,544.1208C178.22981,544.2079,178.21846,544.2084,178.13121,544.1245C178.0091,544.00757,178.0629,543.8524,178.2167,543.8493C178.27936,543.84796,178.3486,543.88654,178.3724,543.9373 Z"/> </g> <g style="fill:rgb(0,0,0); fill-opacity:1.0; stroke-linejoin: miter"> <path d="M176.63837,543.87054C176.88266,544.105,177.08687,544.33417,177.08763,544.3741C177.08873,544.4254,176.9068,544.44635,176.41116,544.45667L175.72751,544.4709L175.81244,544.16693C175.8916,543.86304,176.09369,543.4372,176.15637,543.43585C176.17343,543.4355,176.38837,543.6306,176.63837,543.87054 Z"/> </g> <g style="fill:rgb(0,0,0); fill-opacity:1.0; stroke-linejoin: miter"> <path d="M180.29959,543.4189C180.4223,543.5645,180.60133,543.954,180.64546,544.1582L180.68962,544.36804L180.02882,544.38184C179.53313,544.39185,179.3676,544.3783,179.36641,544.32135C179.36559,544.2814,179.56029,544.0493,179.8002,543.79956C180.14053,543.44495,180.25284,543.36285,180.29959,543.4189 Z"/> </g> <g style="fill:rgb(0,0,0); fill-opacity:1.0; stroke-linejoin: miter"> <path d="M177.80063,543.02C177.811,543.5214,177.79721,543.68134,177.73502,543.7054C177.68982,543.7234,177.46384,543.5457,177.1789,543.2722L176.70203,542.80914L177.0574,542.6308C177.25479,542.52997,177.50342,542.42786,177.59995,542.4089L177.78711,542.365L177.80063,543.02 Z"/> </g> <g style="fill:rgb(0,0,0); fill-opacity:1.0; stroke-linejoin: miter"> <path d="M179.0202,542.45917C179.32434,542.56116,179.61844,542.7261,179.61972,542.7887C179.62152,542.8742,178.73303,543.7361,178.67535,543.703C178.58295,543.64233,178.56213,542.3604,178.65326,542.35864C178.69327,542.36334,178.8594,542.4056,179.0202,542.45917 Z"/> </g> <g style="fill:rgb(0,0,0); fill-opacity:1.0; stroke-linejoin: miter"> <path d="M178.8659,540.7867C180.86752,541.11584,182.30357,542.7619,182.33946,544.77295C182.35371,545.468,182.23903,545.98315,181.94444,546.62195C181.72603,547.08795,181.61546,547.2501,181.18007,547.69226C180.40999,548.48895,179.61424,548.8702,178.55022,548.9547C176.37086,549.1252,174.44075,547.56934,174.15088,545.404C173.97614,544.11383,174.41165,542.8509,175.34451,541.93646C175.8194,541.47095,176.2298,541.2003,176.77298,541.0009C177.49686,540.72955,178.13379,540.665,178.8659,540.7867 Z M177.263,542.10223C176.79312,542.25446,176.16422,542.71204,175.89838,543.0878C175.78763,543.24396,175.62292,543.5496,175.5249,543.7683C175.37244,544.11334,175.35211,544.2336,175.3404,544.7695C175.32813,545.2768,175.3487,545.4476,175.45807,545.77576C175.70174,546.53436,176.25578,547.14417,177.00395,547.4935C178.97206,548.4103,181.18764,546.9568,181.1428,544.78613C181.1267,544.00586,180.86333,543.3956,180.29257,542.8034C179.50647,541.99884,178.36673,541.7319,177.263,542.10223 Z"/> </g> <g style="fill:rgb(0,0,0); fill-opacity:1.0; stroke-linejoin: miter"> <path d="M209.72253,546.0198C209.73363,546.5609,209.71889,546.6751,209.65054,546.67645C209.53093,546.6791,209.01407,546.4901,208.83513,546.3799L208.69069,546.28625L209.12578,545.8268C209.3657,545.57666,209.59505,545.367,209.63492,545.36615C209.69193,545.3649,209.71239,545.52966,209.72253,546.0198 Z"/> </g> <g style="fill:rgb(0,0,0); fill-opacity:1.0; stroke-linejoin: miter"> <path d="M211.16533,545.7848L211.619,546.2256L211.47853,546.3253C211.30429,546.443,210.79564,546.65295,210.67603,546.65546C210.60767,546.6567,210.58821,546.5432,210.57709,546.0021C210.56691,545.5121,210.58057,545.3463,210.63757,545.34515C210.67746,545.3444,210.91524,545.54474,211.16533,545.7848 Z"/> </g> <g style="fill:rgb(0,0,0); fill-opacity:1.0; stroke-linejoin: miter"> <path d="M210.29384,544.982C210.31184,545.0271,210.28485,545.1017,210.24025,545.1484C210.1287,545.26465,209.99063,545.2048,209.98724,545.03955C209.985,544.9314,210.01291,544.90234,210.12114,544.9C210.19524,544.8985,210.2701,544.93677,210.29384,544.982 Z"/> </g> <g style="fill:rgb(0,0,0); fill-opacity:1.0; stroke-linejoin: miter"> <path d="M208.97676,544.68427C208.99445,544.7123,208.79991,544.9501,208.54317,545.21185L208.08006,545.6944L207.9564,545.50336C207.84442,545.3232,207.64616,544.8313,207.64392,544.7231C207.6425,544.6546,208.93547,544.61676,208.97676,544.68427 Z"/> </g> <g style="fill:rgb(0,0,0); fill-opacity:1.0; stroke-linejoin: miter"> <path d="M212.60027,544.62067C212.60257,544.7291,212.42484,545.2284,212.32033,545.4132L212.20468,545.60925L211.72208,545.1461C211.45473,544.8953,211.25049,544.6658,211.26695,544.63696C211.30545,544.5678,212.5989,544.5524,212.60027,544.62067 Z"/> </g> <g style="fill:rgb(0,0,0); fill-opacity:1.0; stroke-linejoin: miter"> <path d="M209.42159,544.1451C209.46373,544.2525,209.31306,544.40936,209.20401,544.37177C209.15794,544.3499,209.11653,544.27655,209.115,544.2026C209.11276,544.0943,209.14066,544.0653,209.24889,544.06305C209.32295,544.0616,209.39781,544.09985,209.42159,544.1451 Z"/> </g> <g style="fill:rgb(0,0,0); fill-opacity:1.0; stroke-linejoin: miter"> <path d="M211.109,544.1615C211.11238,544.3266,210.97694,544.3921,210.86066,544.2805C210.74437,544.1689,210.8042,544.0309,210.9694,544.0275C211.07765,544.0254,211.10675,544.0532,211.109,544.1615 Z"/> </g> <g style="fill:rgb(0,0,0); fill-opacity:1.0; stroke-linejoin: miter"> <path d="M210.36316,543.9261C210.50853,544.0656,210.51976,544.3332,210.38547,544.4556C210.2457,544.584,209.96074,544.5841,209.84421,544.46124C209.62857,544.2319,209.79688,543.8239,210.10442,543.8174C210.1842,543.8158,210.29918,543.8647,210.36316,543.9261 Z"/> </g> <g style="fill:rgb(0,0,0); fill-opacity:1.0; stroke-linejoin: miter"> <path d="M210.23676,543.3246C210.23842,543.4043,210.21715,543.4789,210.18903,543.4966C210.08775,543.5613,209.95474,543.4671,209.95192,543.3305C209.94968,543.2222,209.97758,543.1931,210.09149,543.19073C210.20547,543.18854,210.23453,543.2164,210.23676,543.3246 Z"/> </g> <g style="fill:rgb(0,0,0); fill-opacity:1.0; stroke-linejoin: miter"> <path d="M208.51382,543.24054C208.77559,543.4974,208.97398,543.7212,208.95735,543.74426C208.93501,543.76746,208.62204,543.79114,208.26314,543.79846L207.61372,543.8119L207.64462,543.6518C207.68117,543.49146,207.9799,542.7784,208.01408,542.7777C208.02545,542.77747,208.252,542.9836,208.51382,543.24054 Z"/> </g> <g style="fill:rgb(0,0,0); fill-opacity:1.0; stroke-linejoin: miter"> <path d="M212.32764,543.0079C212.42255,543.1883,212.5244,543.4256,212.54918,543.5219L212.59288,543.7089L211.932,543.7228C211.57312,543.73004,211.26495,543.7137,211.24744,543.6913C211.22975,543.6631,211.43002,543.42523,211.68669,543.1578L212.14978,542.6752L212.32764,543.0079 Z"/> </g> <g style="fill:rgb(0,0,0); fill-opacity:1.0; stroke-linejoin: miter"> <path d="M209.64691,542.36224C209.6545,542.7269,209.63805,543.035,209.6156,543.05255C209.58751,543.07025,209.34962,542.8697,209.08215,542.6131L208.59372,542.14453L208.9605,541.9658C209.15804,541.8707,209.3896,541.7691,209.47461,541.7445L209.63342,541.70703L209.64691,542.36224 Z"/> </g> <g style="fill:rgb(0,0,0); fill-opacity:1.0; stroke-linejoin: miter"> <path d="M210.83745,541.77905C210.94655,541.81665,211.1535,541.90356,211.28595,541.96924L211.53918,542.08936L211.0761,542.5719C210.81943,542.8395,210.59013,543.0492,210.56131,543.03296C210.53813,543.0162,210.50899,542.70917,210.50157,542.3502C210.48701,541.6437,210.48155,541.6554,210.83745,541.77905 Z"/> </g> <g style="fill:rgb(0,0,0); fill-opacity:1.0; stroke-linejoin: miter"> <path d="M210.76903,540.1219C212.66808,540.4531,214.05579,541.9632,214.22064,543.8749C214.3255,545.0867,213.85504,546.3161,212.972,547.1608C212.51363,547.5978,212.10284,547.8514,211.49205,548.08044C211.02272,548.26105,210.94318,548.2741,210.19673,548.28375C209.47322,548.29865,209.35902,548.2897,208.94025,548.1559C207.52292,547.695,206.49199,546.6221,206.10944,545.2107C205.96771,544.6951,205.97504,543.66907,206.12408,543.1587C206.53864,541.7083,207.61035,540.6147,209.00426,540.22107C209.49162,540.0855,210.28859,540.0406,210.76903,540.1219 Z M209.1322,541.4494C207.76855,541.9279,206.93848,543.4042,207.25761,544.7825C207.40205,545.42926,207.62686,545.8292,208.10371,546.28687C208.5399,546.7108,208.91454,546.914,209.48732,547.0504C211.21692,547.4536,212.9337,546.1356,213.02751,544.3327C213.08601,543.29987,212.54602,542.26807,211.66852,541.72766C211.34514,541.52344,210.7997,541.32965,210.45097,541.27966C210.1367,541.24066,209.48865,541.32263,209.1322,541.4494 Z"/> </g> <g style="fill:rgb(0,0,0); fill-opacity:1.0; stroke-linejoin: miter"> <path d="M207.08652,531.5349C207.2759,531.59937,207.2878,531.6219,207.33998,531.94C207.39241,532.27515,207.39825,532.28076,207.63377,532.36707C207.76585,532.41565,208.65007,532.73364,209.59755,533.07336C211.63573,533.7948,213.31926,534.44977,214.4007,534.9346C215.20021,535.28845,215.34918,535.3251,216.37143,535.4239C216.65129,535.45233,217.09122,535.5058,217.34286,535.5462C217.59448,535.5866,218.27362,535.62964,218.85504,535.63446L219.9155,535.6526L220.07367,535.8601C220.16162,535.97815,220.25607,536.1357,220.28633,536.2205C220.34007,536.3391,220.32939,536.3736,220.2337,536.4326C220.09839,536.5037,220.10776,536.6803,220.2785,537.22394C220.33961,537.42206,220.38074,537.7576,220.38939,538.1735C220.40125,538.74866,220.41405,538.8169,220.51773,538.8718C220.67908,538.95386,220.93323,539.3934,221.03209,539.76733C221.13731,540.1699,221.1572,541.67993,221.06732,542.29724C221.0022,542.73175,220.9912,542.749,220.66139,543.06366C220.47707,543.244,220.2713,543.49335,220.2054,543.6143C219.97482,544.04083,219.24458,544.284,217.47128,544.52014C216.71533,544.62115,214.78702,544.8036,214.40527,544.8115C214.3597,544.81244,214.33765,544.5734,214.32063,544.0265C214.30661,543.3431,214.2806,543.1898,214.14133,542.7937C213.9113,542.14307,213.60529,541.67633,213.07022,541.1572C212.54094,540.64386,212.0157,540.32404,211.33858,540.1044C210.91405,539.9707,210.81128,539.96136,210.02512,539.9777C209.23892,539.99396,209.13661,540.0073,208.71799,540.15857C208.04501,540.41187,207.539,540.74713,207.03137,541.28204C206.51276,541.83417,206.28137,542.22095,206.05061,542.91504C205.88953,543.3916,205.88535,543.4658,205.89635,544.2748C205.90599,544.742,205.93962,545.2657,205.96596,545.436L206.0179,545.74286L205.20247,545.72534C204.75195,545.7119,199.41922,545.80505,193.34047,545.9307C182.84654,546.1472,182.29945,546.15295,182.33751,546.061C182.35338,546.0037,182.40999,545.7061,182.45476,545.39185C182.51909,544.9175,182.52129,544.7464,182.455,544.29755C182.30882,543.2919,181.84016,542.401,181.11365,541.7205C179.02734,539.77466,175.5874,540.4498,174.3758,543.0453C174.05377,543.7359,173.9765,544.1307,173.99936,544.96234C174.00748,545.35565,174.04462,545.77655,174.08698,545.8952C174.12375,546.01996,174.14888,546.13336,174.13771,546.14484C174.10411,546.17395,172.59758,546.0799,172.19167,546.0199C171.67143,545.94525,171.49327,545.87476,171.2899,545.6853C170.96416,545.367,170.90904,545.18005,170.95723,544.4781C170.98663,543.97034,170.97592,543.7254,170.87216,543.1177C170.71536,542.15216,170.69186,541.0126,170.81381,540.57117C171.10042,539.54504,172.59163,538.89325,176.69931,537.9874C179.32047,537.40894,180.99142,537.1807,183.1498,537.102C185.39948,537.0213,185.41074,537.0153,185.832,536.716C186.65787,536.13477,189.58606,534.4156,191.2661,533.526C192.6192,532.814,193.50769,532.50507,194.98929,532.218C197.2316,531.78436,200.78545,531.6594,204.69383,531.8637L205.61818,531.91296L205.99545,531.6943C206.40657,531.4521,206.70766,531.4058,207.08652,531.5349 Z M199.51743,532.90546C199.50285,533.0254,199.38005,533.9796,199.23639,535.02563C199.09268,536.0716,198.99092,536.9399,199.00266,536.9568C199.04907,536.9958,205.25624,536.742,206.42287,536.65533C208.31775,536.5079,208.68079,536.4262,209.07182,536.04205C209.46301,535.6637,209.58276,535.3932,209.57901,534.93744C209.56842,534.4246,209.44495,534.23914,208.93204,533.97015C207.30763,533.1319,204.07745,532.65155,200.29369,532.6841L199.54726,532.6939L199.51743,532.90546 Z M195.71828,533.02356C192.90198,533.53204,191.94676,533.9223,189.65417,535.5084C189.06987,535.91376,188.98593,535.9897,189.15111,535.9862C189.322,535.9826,189.61697,536.1875,189.7235,536.379C189.7947,536.51447,189.81447,536.64496,189.79626,536.8678L189.76834,537.1705L193.30043,537.0973L196.82692,537.02466L196.88629,536.86395C197.18343,536.07104,198.02734,533.3352,198.08803,532.9634L198.12384,532.76324L197.36113,532.8132C196.93997,532.8444,196.20107,532.93945,195.71828,533.02356 Z"/> </g> <g> <g style="fill:rgb(0,0,0); fill-opacity:1.0; stroke-linejoin: miter"> <path d="M166.14073,529.9618C166.18037,529.9794,166.31105,530.0315,166.43059,530.0762C166.69664,530.1767,166.97733,530.29663,167.04297,530.3376C167.07138,530.3549,167.22775,530.4917,167.39297,530.6445C167.75568,530.9796,167.69168,530.9235,168.17007,531.3421C168.54785,531.67224,168.90674,532.0525,169.04224,532.2667C169.11734,532.38727,169.17606,532.3986,169.26627,532.3131C169.51498,532.0738,169.73206,531.9605,170.16527,531.83813C170.51674,531.73816,170.64064,531.7456,170.87529,531.87787C171.24855,532.0814,171.35854,532.156,171.47136,532.2748C171.53557,532.33923,171.63777,532.4429,171.70229,532.50195C171.78596,532.5804,171.82518,532.65106,171.85533,532.7673C171.8756,532.8549,171.91502,532.9685,171.9406,533.02045C171.96999,533.0737,171.98802,533.14667,171.98564,533.1798C171.98186,533.2183,172.0428,533.319,172.12822,533.42004C172.34508,533.6761,172.46794,533.67206,172.62419,533.41016C172.71706,533.2592,172.87096,533.1164,172.98811,533.06836C173.16112,532.9972,173.34087,532.9871,173.908,533.0194C174.21455,533.03296,174.58946,533.0436,174.74586,533.0373C175.22438,533.01984,176.6279,533.1051,176.74054,533.1587C176.88171,533.2222,176.99991,533.28815,177.70863,533.704C178.06319,533.90924,178.4294,534.1124,178.52452,534.15936C178.73952,534.263,178.75975,534.2821,178.77483,534.3905C178.78337,534.44147,178.80385,534.5188,178.82384,534.5657C178.84496,534.6112,178.85857,534.67456,178.85606,534.7102C178.85222,534.7433,178.8673,534.78937,178.88484,534.80756C178.90791,534.83734,178.91042,534.9629,178.89143,535.21466C178.86919,535.51434,178.85434,535.58997,178.8103,535.63153C178.7449,535.696,178.67068,535.9647,178.6388,536.25543C178.62729,536.37933,178.60144,536.47925,178.58328,536.48413C178.53763,536.4949,178.48935,536.34827,178.47842,536.14417C178.47028,536.0481,178.45929,535.96375,178.45071,535.95435C178.4284,535.9285,178.30984,536.00037,178.17303,536.11694C178.10953,536.17255,178.04034,536.2122,178.01971,536.2047C177.96158,536.1792,177.98514,535.90924,178.05502,535.8246C178.12357,535.7385,178.17848,535.4912,178.15245,535.3665C178.13893,535.3063,178.1523,535.20886,178.19157,535.0721C178.22481,534.95996,178.26219,534.8204,178.27513,534.7581L178.29909,534.6496L178.0891,534.5334C177.85829,534.407,177.43053,534.2334,176.80498,534.0133C176.296,533.8344,176.24498,533.82477,175.79869,533.878C175.6815,533.8926,175.39897,533.91644,175.16734,533.9354C174.7296,533.9648,174.45409,534.0063,174.28215,534.06525C174.22728,534.084,174.16393,534.0971,174.13985,534.095C174.11989,534.0942,174.07594,534.11145,174.04735,534.1357C174.00523,534.17554,173.99535,534.22784,173.99223,534.4554C173.98695,534.8391,173.99559,534.9329,174.06978,535.24054C174.1757,535.6663,174.17934,535.6873,174.19994,535.8615C174.24852,536.24756,174.23235,536.56256,174.14537,537.1656C174.09636,537.496,174.04788,537.7759,174.03455,537.7926C174.01208,537.8268,173.92563,538.4617,173.84567,539.17944C173.79187,539.7008,173.71237,540.07336,173.6033,540.3338C173.53781,540.4897,173.28412,540.7993,173.10349,540.93774C173.0398,540.9905,172.92209,541.0818,172.84302,541.1448C172.40997,541.4909,170.74939,542.462,170.05066,542.7767C169.46326,543.039,168.81418,543.2593,168.51303,543.295C168.38599,543.3101,168.33707,543.3627,168.22809,543.5875C168.09528,543.8614,168.06683,543.9699,168.01309,544.3691L167.96411,544.7321L168.04153,544.84973C168.0846,544.9153,168.14182,544.9964,168.16882,545.0312C168.35419,545.2626,168.30136,545.4414,167.94861,545.8079C167.87704,545.88074,167.82089,545.95966,167.81888,545.98663C167.81137,546.0808,167.66908,546.50964,167.60231,546.63586C167.55043,546.73083,167.39989,546.8538,167.27977,546.8986C167.191,546.93134,166.89848,546.8044,166.69003,546.63947C166.56445,546.5394,166.53915,546.50494,166.54514,546.4303L166.55234,546.34125L166.76231,546.3667C167.01625,546.4016,167.03725,546.37476,166.9844,546.12573C166.94293,545.9204,166.95734,545.6171,167.02554,545.30225C167.21637,544.4369,167.2619,544.19324,167.2644,543.9927C167.27505,543.54584,167.27151,543.289,167.25592,543.2564C167.24448,543.2425,167.16583,543.1852,167.07349,543.13257C166.66023,542.8833,166.38492,542.41754,166.21072,541.67334C166.01416,540.8254,165.94315,540.01404,165.95757,538.7285L165.96104,538.4144L165.70006,538.30493C165.3947,538.17413,165.25533,538.1045,164.98216,537.92896C164.21327,537.44086,163.86867,537.2568,163.71446,537.2445C163.65538,537.2401,163.53777,537.27344,163.4362,537.31976C163.14264,537.456,163.11432,537.4649,163.0657,537.44403C162.94775,537.39105,162.83823,537.2181,162.74573,536.9335C162.71765,536.8411,162.682,536.73065,162.66342,536.69C162.60889,536.5488,162.30484,536.2367,162.09671,536.1009C161.98572,536.02734,161.8923,535.9579,161.89325,535.9422C161.89362,535.9304,161.86057,535.87427,161.81647,535.8144C161.71939,535.6846,161.70276,535.618,161.7547,535.5565C161.78818,535.5197,161.80942,535.51746,161.85773,535.54913C161.88916,535.5683,161.97107,535.59033,162.03891,535.59625C162.18436,535.6071,162.53839,535.706,162.79944,535.80835C163.0777,535.917,163.18375,535.97473,163.48137,536.17426C163.59856,536.25024,163.79921,536.36475,163.92577,536.42535C164.05534,536.4895,164.18849,536.55206,164.21925,536.5663C164.35884,536.6327,164.61931,536.73376,164.80095,536.7856C165.47218,536.9814,166.00703,537.0482,166.9741,537.06104C167.92482,537.0773,167.95842,537.074,168.10335,537.00745C168.39467,536.8746,168.50111,536.7268,168.52031,536.4308C168.5403,536.089,168.45479,535.91974,168.40553,536.2122L168.38463,536.3296L168.32521,536.17004C168.2772,536.04803,168.25414,536.0166,168.22032,536.0305C168.19157,536.04645,168.14787,536.0321,168.09746,535.98834C168.0355,535.9335,168.01817,535.88983,168.01445,535.75006C168.00774,535.5967,168.01564,535.56494,168.07814,535.4914C168.14684,535.4136,168.14748,535.40393,168.10548,535.3269C168.07979,535.2821,168.03746,535.24414,168.0074,535.24207C167.93083,535.2358,167.92088,535.1694,167.93245,534.8099C167.94435,534.54144,167.95955,534.4658,168.01128,534.3672C168.0494,534.3014,168.08925,534.1786,168.1043,534.09314C168.11717,534.01074,168.1689,533.87134,168.21693,533.78687C168.32722,533.59973,168.32628,533.6092,168.25932,533.5088C168.1866,533.4005,168.20071,533.2963,168.30286,533.1326C168.35342,533.05316,168.3794,532.97943,168.3699,532.9558C168.3565,532.9336,168.25302,532.79456,168.13644,532.64465C167.95132,532.4097,167.85687,532.2779,167.6662,531.96716C167.48221,531.67303,167.0911,531.0875,166.93283,530.8781C166.88437,530.81555,166.83734,530.7974,166.62202,530.76245C166.4811,530.7398,166.34004,530.70886,166.3055,530.6942C166.26863,530.6756,166.19905,530.677,166.12633,530.6946C165.94615,530.7444,165.8759,530.7327,165.84938,530.6448C165.8246,530.55524,165.82942,530.55634,165.61443,530.5966C165.46873,530.6238,165.43306,530.62115,165.29741,530.5698C165.20137,530.53235,165.13387,530.4878,165.11574,530.44543C165.09007,530.3889,165.0967,530.3718,165.18602,530.30774C165.26787,530.251,165.27818,530.23157,165.2429,530.21655C165.14848,530.1699,165.21059,530.1027,165.43462,530.01855C165.68144,529.92334,165.99596,529.8998,166.14073,529.9618 Z M170.87245,535.287C170.85115,535.3362,170.79094,535.4354,170.73744,535.5059C170.66737,535.5993,170.63042,535.69214,170.60542,535.82983C170.57686,535.99646,170.55602,536.03864,170.47609,536.1047C170.39024,536.17535,170.38304,536.1957,170.39091,536.3135C170.39812,536.41846,170.38966,536.4534,170.3354,536.5016C170.27095,536.5613,170.08577,536.9679,170.07878,537.05896C170.07573,537.0981,170.10472,537.10657,170.26021,537.1024C170.36528,537.1016,170.68352,537.1021,170.96977,537.10925C171.25548,537.1135,171.56978,537.1163,171.66225,537.11456L171.83614,537.1093L171.77757,537.01556C171.72444,536.9257,171.46281,536.7134,171.23756,536.57745C171.06047,536.46857,170.94627,536.3146,170.90688,536.1277C170.87038,535.95526,170.88777,535.8368,171.00966,535.44885C171.0467,535.32623,171.04897,535.285,171.02245,535.2469C170.96834,535.1722,170.91628,535.1847,170.87245,535.287 Z"/> </g> </g> <g style="fill:rgb(0,0,0); fill-opacity:1.0; stroke-linejoin: miter"> <path d="M167.83124,544.63745L167.82034,545.3174L168.4711,545.75494L168.59299,545.5885L167.83173,544.63806"/> </g> <g style="fill:rgb(0,0,0); fill-opacity:1.0; stroke-linejoin: miter"> <path d="M162.74292,537.54803L162.42896,537.391L162.50061,537.05334Q161.80865,536.5755,161.59409,536.26Q161.49915,536.1274,161.44531,535.98083Q161.42642,535.9296,161.40704,535.8577Q161.39957,535.8362,161.34131,535.57587Q161.32617,535.5165,161.31253,535.4854Q161.27954,535.4103,161.23474,535.42554Q161.10773,535.4759,160.9538,535.80786Q160.84671,536.0545,160.87573,536.25336Q160.8999,536.4342,161.04617,536.60785Q161.08615,536.65594,161.14023,536.71185Q161.45874,537.021,161.90756,537.5007L161.55887,537.60834L161.56462,537.81903L162.74237,537.5482"/> </g> </g> </svg>