<svg viewBox="0 -100 512 512" xmlns="http://www.w3.org/2000/svg"><path d="m330.414062 0h-74.414062l-20.015625 83.800781 94.429687-20.015625zm0 0" fill="#fc0023"/><path d="m181.585938 0v63.785156l74.414062 20.015625v-83.800781zm0 0" fill="#4895ff"/><path d="m368.484375 63.785156h-69.960937l-20.015626 141.011719 153.761719-20.019531zm0 0" fill="#7ed8f6"/><path d="m213.476562 63.785156-20.015624 141.011719 105.0625-20.019531v-120.992188zm0 0" fill="#beebfa"/><path d="m143.515625 63.785156-63.785156 120.992188 133.746093 20.019531v-141.011719zm0 0" fill="#7ed8f6"/><path d="m512 184.777344h-256l-20.015625 47.839844 20.015625 47.839843h256zm0 0" fill="#3440db"/><path d="m0 184.777344h256v95.679687h-256zm0 0" fill="#4895ff"/><path d="m127.570312 280.457031c0 17.613281-14.277343 31.894531-31.890624 31.894531-17.617188 0-31.894532-14.28125-31.894532-31.894531s14.277344-31.894531 31.894532-31.894531c17.613281 0 31.890624 14.28125 31.890624 31.894531zm0 0" fill="#5a5a5a"/><path d="m448.214844 280.457031c0 17.613281-14.277344 31.894531-31.894532 31.894531-17.613281 0-31.890624-14.28125-31.890624-31.894531s14.277343-31.894531 31.890624-31.894531c17.617188 0 31.894532 14.28125 31.894532 31.894531zm0 0" fill="#2d2d2d"/></svg>