<svg width="512" height="512" viewBox="0 0 512 512" fill="none" xmlns="http://www.w3.org/2000/svg">
<rect width="512" height="512" fill="white"/>
<path d="M140.148 436.953H110.148V290.703C110.148 269.707 103.098 248.984 90.2891 232.348C75.2188 212.766 66.2578 189.766 64.3789 165.828C62.6172 143.406 67.0234 120.711 77.1211 100.195C87.2188 79.6836 102.512 62.3477 121.355 50.0625C141.469 36.9531 165.16 30.0234 189.871 30.0234H248.762V60.0234H189.871C170.992 60.0234 152.965 65.2695 137.738 75.1953C123.41 84.5352 111.754 97.7617 104.035 113.445C96.3203 129.129 92.9453 146.43 94.2852 163.484C95.707 181.602 102.547 199.09 114.063 214.047C130.883 235.902 140.148 263.125 140.148 290.703V436.953Z" fill="#00154F"/>
<path d="M376.398 30H442.809V0H343.824L320.223 27.2852L431.117 104.938L448.324 80.3633L376.398 30Z" fill="#00154F"/>
<path d="M343.824 0H288.793L268.777 150.098L343.824 130.078V0Z" fill="#FC0023"/>
<path d="M233.762 0V130.078L288.793 150.098V0H233.762Z" fill="#FF7037"/>
<path d="M407.391 178.645C407.391 135.324 372.145 100.082 328.824 100.082H288.793L268.777 306.039L288.793 512H407.391V451.953L397.383 436.953L407.391 421.953V178.645Z" fill="#C9001C"/>
<path d="M248.762 100.078C205.441 100.078 170.199 135.324 170.199 178.645V512H288.793V100.078H248.762Z" fill="#FC0023"/>
<path d="M332.391 436.953V226.754H288.793L268.777 436.953H332.391Z" fill="#F4AF1B"/>
<path d="M245.199 226.754H288.793V436.953H245.199V226.754Z" fill="#F4AF1B"/>
<path d="M407.391 421.953H288.793L278.785 436.953L288.793 451.953H407.391V421.953Z" fill="#00154F"/>
<path d="M80.1133 421.953H288.793V451.953H80.1133V421.953Z" fill="#00154F"/>
</svg>
