<svg id="Capa_1" enable-background="new 0 0 512 512" height="512" viewBox="0 0 512 512" width="512" xmlns="http://www.w3.org/2000/svg"><g><g><g><g><path d="m462.399 418.624h-254.508v-223.67l119.047-87.874 135.461 108.517z" fill="#f7f4f3"/></g></g></g><g><path d="m462.399 215.597-135.461-108.517v311.544h135.461z" fill="#eee9e7"/></g><path d="m465.078 194.954v-114.692h-70.696v56.341l-67.444-58.168-140.055 115.434 18.976 23.083 121.079-99.41 165.485 143.638 19.577-22.575z" fill="#fc2444"/><g><g><g><g><path d="m117.666 406.093c-64.881 0-117.666-52.785-117.666-117.666 0-26.617 17.983-66.471 53.449-118.454 25.631-37.568 61.707-81.015 61.707-81.015s38.264 43.265 64.799 80.831c36.746 52.023 55.378 91.939 55.378 118.637-.001 64.882-52.786 117.667-117.667 117.667z" fill="#fee05c"/></g></g></g></g><g><path d="m179.954 169.79c-25.648-36.311-62.414-77.943-64.799-80.684l.656 316.964c.618.01 1.235.024 1.855.024 64.881 0 117.666-52.785 117.666-117.666 0-26.7-18.632-66.615-55.378-118.638z" fill="#febf2e"/></g><g><g><g><path d="m115.812 406.093c-41.508 0-75.277-33.769-75.277-75.277 0-17.146 10.671-41.122 32.622-73.296 15.335-22.477 42.238-53.134 42.238-53.134s35.746 109.201 35.746 126.43c-.001 41.508 6.178 75.277-35.329 75.277z" fill="#fd7041"/></g></g></g><g><path d="m157.272 257.337c-14.396-20.38-37.73-48.058-41.878-52.95l.417 201.707c41.508 0 75.277-33.769 75.277-75.277.001-17.229-11.061-41.265-33.816-73.48z" fill="#fc2444"/></g><g><path d="m512 238.605-46.922-43.651v-114.692h-70.696v56.341l-67.444-58.168v39.107l165.485 143.638z" fill="#bd0710"/></g><g><g><g><path d="m368.06 419.772h-84.393v-127.924h84.393z" fill="#985140"/></g></g></g><path d="m326.938 291.848h41.122v127.924h-41.122z" fill="#7f4233"/><g><g><g><path d="m0 403.565h512v30h-512z" fill="#93e170"/></g></g></g><g><path d="m326.938 403.565h185.062v30h-185.062z" fill="#5bc033"/></g></g></svg>