<svg viewBox="0 -69 512 512" xmlns="http://www.w3.org/2000/svg"><g fill="#fff5f5"><path d="m226 15h30v63.671875h-30zm0 0"/><path d="m34.980469 15h30v63.671875h-30zm0 0"/><path d="m98.65625 15h30v63.671875h-30zm0 0"/><path d="m162.328125 15h30v63.671875h-30zm0 0"/></g><path d="m289.671875 15h30v63.671875h-30zm0 0" fill="#efe2dd"/><path d="m353.34375 15h30v63.671875h-30zm0 0" fill="#efe2dd"/><path d="m417.019531 15h30v63.671875h-30zm0 0" fill="#efe2dd"/><path d="m482 0h-226l-10.007812 15 10.007812 15h226zm0 0" fill="#cdbfba"/><path d="m256 0h-256v30h256zm0 0" fill="#efe2dd"/><path d="m470.613281 63.660156h-55.835937l-20.015625 138.40625 117.238281-20.015625zm0 0" fill="#2fc0f0"/><path d="m353.34375 63.660156-22.253906 138.40625 83.6875-20.015625v-118.390625zm0 0" fill="#7ed8f6"/><path d="m353.34375 182.050781v-118.390625h-97.34375l-20.015625 202.078125 276.015625-20.015625v-63.671875zm0 0" fill="#c9001c"/><path d="m256 63.660156h-256v182.0625l256 20.015625zm0 0" fill="#fc0023"/><path d="m256 341.230469h256v-95.507813h-256l-20.015625 47.753906zm0 0" fill="#fc0023"/><path d="m0 245.722656h256v95.507813h-256zm0 0" fill="#ff7037"/><path d="m128.25 341.230469c0 17.585937-14.253906 31.835937-31.835938 31.835937-17.582031 0-31.835937-14.25-31.835937-31.835937 0-17.582031 14.253906-31.835938 31.835937-31.835938 17.582032 0 31.835938 14.253907 31.835938 31.835938zm0 0" fill="#5a5a5a"/><path d="m448.328125 341.230469c0 17.585937-14.253906 31.835937-31.835937 31.835937-17.582032 0-31.835938-14.25-31.835938-31.835937 0-17.582031 14.253906-31.835938 31.835938-31.835938 17.582031 0 31.835937 14.253907 31.835937 31.835938zm0 0" fill="#2d2d2d"/></svg>