<svg viewBox="-117 0 512 512.00001" xmlns="http://www.w3.org/2000/svg"><path d="m217.882812 0h30v112.25h-30zm0 0" fill="#c8d2dc"/><path d="m0 160.9375h46.394531v30h-46.394531zm0 0" fill="#2d2d2d"/><path d="m0 222.800781h46.394531v30h-46.394531zm0 0" fill="#2d2d2d"/><path d="m278.824219 87.316406h-123.71875l-20.015625 212.34375 20.015625 212.339844h123.71875zm0 0" fill="#2d2d2d"/><path d="m31.382812 87.316406h123.722657v424.683594h-123.722657zm0 0" fill="#5a5a5a"/><g fill="#dce6eb"><path d="m77.777344 311.417969h30.929687v30h-30.929687zm0 0"/><path d="m77.777344 373.277344h30.929687v30h-30.929687zm0 0"/><path d="m139.640625 311.417969h30.929687v30h-30.929687zm0 0"/><path d="m139.640625 373.277344h30.929687v30h-30.929687zm0 0"/><path d="m201.5 311.417969h30.929688v30h-30.929688zm0 0"/><path d="m201.5 373.277344h30.929688v30h-30.929688zm0 0"/><path d="m77.777344 435.140625h30.929687v30h-30.929687zm0 0"/><path d="m139.640625 435.140625h30.929687v30h-30.929687zm0 0"/><path d="m201.5 435.140625h30.929688v30h-30.929688zm0 0"/></g><path d="m155.105469 149.179688-20.015625 55.972656 20.015625 59.40625c31.859375 0 57.6875-25.828125 57.6875-57.691406 0-31.859376-25.828125-57.6875-57.6875-57.6875zm0 0" fill="#00dd80"/><path d="m97.414062 206.867188c0 31.863281 25.828126 57.691406 57.691407 57.691406v-115.378906c-31.863281 0-57.691407 25.828124-57.691407 57.6875zm0 0" fill="#a6ffb5"/></svg>