<svg viewBox="0 -73 512 512" xmlns="http://www.w3.org/2000/svg"><path d="m470.09375 63.785156c0-35.226562-28.558594-63.785156-63.785156-63.785156h-96.535156c-22.601563 0-42.441407 11.765625-53.773438 29.492188l-20.015625 54.308593zm0 0" fill="#ffcd00"/><path d="m202.230469 0h-96.539063c-35.226562 0-63.785156 28.558594-63.785156 63.785156l214.09375 20.015625v-54.308593c-11.328125-17.726563-31.171875-29.492188-53.769531-29.492188zm0 0" fill="#fff04a"/><path d="m389.757812 333.875v-30h-133.757812l-10.007812 15.027344 10.007812 14.972656zm0 0" fill="#5f6c75"/><path d="m122.21875 303.875h133.78125v30h-133.78125zm0 0" fill="#a2abb8"/><path d="m386.53125 315.953125 15.003906-25.976563-115.554687-66.742187 183.585937-106.03125-15.003906-25.976563-198.5625 114.679688-10.007812 16.144531 10.007812 18.515625zm0 0" fill="#a2abb8"/><path d="m57.410156 91.226562-15.003906 25.976563 183.589844 106.03125-115.554688 66.742187 15.003906 25.976563 130.542969-75.394531.011719.007812v-34.660156l-.011719.007812zm0 0" fill="#c8d2dc"/><path d="m90.351562 272.035156c-25.84375 0-46.867187 21.023438-46.867187 46.867188 0 25.839844 21.023437 46.867187 46.867187 46.867187 25.839844 0 46.867188-21.027343 46.867188-46.867187 0-25.84375-21.027344-46.867188-46.867188-46.867188zm0 0" fill="#5a5a5a"/><path d="m421.625 272.035156c-25.84375 0-46.867188 21.023438-46.867188 46.867188 0 25.839844 21.023438 46.867187 46.867188 46.867187s46.867188-21.027343 46.867188-46.867187c0-25.84375-21.023438-46.867188-46.867188-46.867188zm0 0" fill="#2d2d2d"/><path d="m512 63.785156h-256l-20.015625 31.894532 20.015625 31.890624h256zm0 0" fill="#009959"/><path d="m0 63.785156h256v63.785156h-256zm0 0" fill="#00dd80"/></svg>