<svg viewBox="-64 0 512 512" xmlns="http://www.w3.org/2000/svg"><path d="m76.148438 436.953125h-30v-146.25c0-20.996094-7.050782-41.71875-19.859376-58.355469-15.070312-19.582031-24.03125-42.582031-25.910156-66.519531-1.761718-22.421875 2.644532-45.117187 12.742188-65.632813 10.097656-20.511718 25.390625-37.847656 44.234375-50.132812 20.113281-13.109375 43.804687-20.039062 68.515625-20.039062h58.890625v30h-58.890625c-18.878906 0-36.90625 5.246093-52.132813 15.171874-14.328125 9.339844-25.984375 22.566407-33.703125 38.25-7.714844 15.683594-11.089844 32.984376-9.75 50.039063 1.421875 18.117187 8.261719 35.605469 19.777344 50.5625 16.820312 21.855469 26.085938 49.078125 26.085938 76.65625zm0 0" fill="#2d2d2d"/><path d="m312.398438 30h66.410156v-30h-98.984375l-23.601563 27.285156 110.894532 77.652344 17.207031-24.574219zm0 0" fill="#2d2d2d"/><path d="m279.824219 0h-55.03125l-20.015625 150.097656 75.046875-20.019531zm0 0" fill="#fc0023"/><path d="m169.761719 0v130.078125l55.03125 20.019531v-150.097656zm0 0" fill="#ff7037"/><path d="m343.390625 178.644531c0-43.320312-35.246094-78.5625-78.566406-78.5625h-40.03125l-20.015625 205.957031 20.015625 205.960938h118.597656v-60.046875l-10.007813-15 10.007813-15zm0 0" fill="#c9001c"/><path d="m184.761719 100.078125c-43.320313 0-78.5625 35.246094-78.5625 78.566406v333.355469h118.59375v-411.921875zm0 0" fill="#fc0023"/><path d="m268.390625 436.953125v-210.199219h-43.597656l-20.015625 210.199219zm0 0" fill="#efe2dd"/><path d="m181.199219 226.753906h43.59375v210.199219h-43.59375zm0 0" fill="#fff5f5"/><path d="m343.390625 421.953125h-118.597656l-10.007813 15 10.007813 15h118.597656zm0 0" fill="#2d2d2d"/><path d="m16.113281 421.953125h208.679688v30h-208.679688zm0 0" fill="#5a5a5a"/></svg>