<svg viewBox="0 0 512 512" xmlns="http://www.w3.org/2000/svg"><path d="m484.21875 162.824219-21.269531-21.152344c12.285156-12.355469 19.050781-28.757813 19.050781-46.179687 0-36.113282-29.378906-65.492188-65.492188-65.492188-17.492187 0-33.9375 6.8125-46.308593 19.183594l-21.210938-21.214844c18.03125-18.035156 42.011719-27.96875 67.519531-27.96875 52.65625 0 95.492188 42.835938 95.492188 95.492188 0 25.40625-9.867188 49.320312-27.78125 67.332031zm0 0" fill="#5f6c75"/><path d="m27.96875 163.011719c-18.035156-18.03125-27.96875-42.011719-27.96875-67.519531 0-52.65625 42.835938-95.492188 95.492188-95.492188 25.40625 0 49.316406 9.867188 67.332031 27.78125l-21.152344 21.273438c-12.355469-12.289063-28.757813-19.054688-46.179687-19.054688-36.113282 0-65.492188 29.378906-65.492188 65.492188 0 17.492187 6.8125 33.9375 19.183594 46.308593zm0 0" fill="#a2abb8"/><path d="m95.492188 512c-52.65625 0-95.492188-42.835938-95.492188-95.492188 0-25.40625 9.867188-49.316406 27.78125-67.332031l21.269531 21.152344c-12.285156 12.355469-19.050781 28.757813-19.050781 46.179687 0 36.113282 29.378906 65.492188 65.492188 65.492188 17.492187 0 33.9375-6.8125 46.308593-19.183594l21.210938 21.214844c-18.03125 18.035156-42.011719 27.96875-67.519531 27.96875zm0 0" fill="#a2abb8"/><path d="m416.507812 512c-25.40625 0-49.316406-9.867188-67.332031-27.78125l21.152344-21.269531c12.355469 12.285156 28.757813 19.050781 46.179687 19.050781 36.113282 0 65.492188-29.378906 65.492188-65.492188 0-17.492187-6.8125-33.9375-19.183594-46.308593l21.214844-21.210938c18.035156 18.03125 27.96875 42.011719 27.96875 67.519531 0 52.65625-42.835938 95.492188-95.492188 95.492188zm0 0" fill="#5f6c75"/><path d="m492.5625 158.011719-67.5625-5.011719-50.324219 53.84375c6.28125 15.140625 9.753907 31.742188 9.753907 49.15625s-3.472657 34.015625-9.753907 49.15625l41.644531 48.832031h76.242188c12.515625-30.1875 19.4375-63.277343 19.4375-97.988281s-6.921875-67.800781-19.4375-97.988281zm0 0" fill="#fc0023"/><path d="m305.15625 374.675781-5.488281 76.324219 54.320312 41.5625c62.574219-25.953125 112.621094-76 138.574219-138.574219l-117.886719-48.832031c-13.015625 31.394531-38.125 56.503906-69.519531 69.519531zm0 0" fill="#efe2dd"/><path d="m374.675781 206.84375 117.886719-48.832031c-25.953125-62.574219-76-112.621094-138.574219-138.574219l-54.320312 49.222656 5.488281 68.664063c31.394531 13.015625 56.503906 38.125 69.519531 69.519531zm0 0" fill="#efe2dd"/><path d="m353.988281 19.4375c-30.1875-12.515625-63.277343-19.4375-97.988281-19.4375l-27.667969 68.660156 27.667969 58.910156c17.414062 0 34.015625 3.472657 49.15625 9.753907zm0 0" fill="#fc0023"/><path d="m256 384.429688-23.667969 58.910156 23.667969 68.660156c34.710938 0 67.800781-6.921875 97.988281-19.4375l-48.832031-117.886719c-15.140625 6.28125-31.742188 9.753907-49.15625 9.753907zm0 0" fill="#fc0023"/><path d="m206.84375 374.675781-62.511719 34.324219 13.679688 83.5625c30.1875 12.515625 63.277343 19.4375 97.988281 19.4375v-127.570312c-17.414062 0-34.015625-3.472657-49.15625-9.753907zm0 0" fill="#ff7037"/><path d="m137.324219 305.15625-68.664063-4.136719-49.222656 52.96875c25.953125 62.574219 76 112.621094 138.574219 138.574219l48.832031-117.886719c-31.394531-13.015625-56.503906-38.125-69.519531-69.519531zm0 0" fill="#fff5f5"/><path d="m127.570312 256c0-17.414062 3.472657-34.015625 9.753907-49.15625l-41.644531-41.785156-76.242188-7.046875c-12.515625 30.1875-19.4375 63.277343-19.4375 97.988281s6.921875 67.800781 19.4375 97.988281l117.886719-48.832031c-6.28125-15.140625-9.753907-31.742188-9.753907-49.15625zm0 0" fill="#ff7037"/><path d="m158.011719 19.4375-6.347657 70.628906 55.179688 47.257813c15.140625-6.28125 31.742188-9.753907 49.15625-9.753907v-127.570312c-34.710938 0-67.800781 6.921875-97.988281 19.4375zm0 0" fill="#ff7037"/><path d="m206.84375 137.324219-48.832031-117.886719c-62.574219 25.953125-112.621094 76-138.574219 138.574219l117.886719 48.832031c13.015625-31.394531 38.125-56.503906 69.519531-69.519531zm0 0" fill="#fff5f5"/></svg>