<svg viewBox="-30 0 511 512" xmlns="http://www.w3.org/2000/svg"><path d="m226.398438 0-20.015626 215 20.015626 297c133.679687-38.050781 225.894531-160.171875 225.894531-299.164062v-148.539063c-132.742188 0-225.894531-64.296875-225.894531-64.296875zm0 0" fill="#fc0023"/><path d="m.5 64.296875v148.542969c0 138.988281 92.214844 261.109375 225.898438 299.160156v-512s-93.15625 64.296875-225.898438 64.296875zm0 0" fill="#ff7037"/><path d="m226.398438 104.691406-20.015626 151.308594 20.015626 142.429688c63.464843 0 114.917968-51.453126 114.917968-114.921876 0-108.957031-114.917968-178.816406-114.917968-178.816406zm0 0" fill="#ffcd00"/><path d="m111.476562 283.507812c0 63.46875 51.453126 114.921876 114.921876 114.921876v-293.738282s-114.921876 69.859375-114.921876 178.816406zm0 0" fill="#fff04a"/><path d="m235.8125 230.378906c-3.148438-3.5-6.328125-6.738281-9.414062-9.691406l-20.015626 68.3125 20.015626 45.183594c21.457031 0 38.917968-17.457032 38.917968-38.917969 0-21.3125-9.925781-43.140625-29.503906-64.886719zm0 0" fill="#fc0023"/><path d="m216.980469 230.378906c-19.578125 21.746094-29.503907 43.578125-29.503907 64.886719 0 21.460937 17.460938 38.917969 38.921876 38.917969v-113.496094c-3.089844 2.953125-6.269532 6.191406-9.417969 9.691406zm0 0" fill="#ff7037"/></svg>