<svg viewBox="0 -16 512 512" xmlns="http://www.w3.org/2000/svg"><path d="m512 294.066406-76.210938-184.171875-199.804687-20.015625 20.015625 390.230469h256zm0 0" fill="#efe2dd"/><path d="m76.210938 109.894531-76.210938 184.171875v186.042969h256v-390.230469zm0 0" fill="#fff5f5"/><path d="m435.789062 109.894531-24.214843-58.527343h-175.589844l20.015625 58.527343zm0 0" fill="#9b9696"/><path d="m256 51.367188h-155.574219l-24.214843 58.527343h179.789062zm0 0" fill="#cdbfba"/><path d="m180.476562 40.386719h30v99.53125h-30zm0 0" fill="#9b9696"/><path d="m301.511719 40.386719h30v99.53125h-30zm0 0" fill="#5f6c75"/><path d="m175.320312 388.800781h-94.730468v-30h64.730468v-33.789062h-63.785156v-93.785157h94.734375v30h-64.734375v33.785157h63.785156zm0 0" fill="#ff7037"/><path d="m430.464844 388.800781h-94.734375v-30h64.734375v-33.789062h-63.785156v-93.785157h94.730468v30h-64.730468v33.785157h63.785156zm0 0" fill="#fc0023"/><path d="m272.894531 261.226562v97.574219h-16.894531l-10.007812 15.253907 10.007812 14.746093h46.894531v-157.574219h-46.894531l-10.007812 16.328126 10.007812 13.671874zm0 0" fill="#fc0023"/><path d="m209.105469 388.800781h46.894531v-30h-16.894531v-97.574219h16.894531v-30h-46.894531zm0 0" fill="#ff7037"/><path d="m442.199219 0h-186.199219l-20.015625 40.386719 20.015625 35.746093h124.308594v63.785157h131.691406v-70.117188c0-38.546875-31.25-69.800781-69.800781-69.800781zm0 0" fill="#cdbfba"/><path d="m69.800781 0c-38.550781 0-69.800781 31.253906-69.800781 69.800781v70.117188h131.691406v-63.785157h124.308594v-76.132812zm0 0" fill="#efe2dd"/></svg>