<svg viewBox="0 0 512 512" xmlns="http://www.w3.org/2000/svg"><path d="m301.167969 0h-45.167969l-20.015625 169.421875 111.25-20.015625zm0 0" fill="#fc0023"/><path d="m210.832031 0-46.066406 149.40625 91.234375 20.015625v-169.421875zm0 0" fill="#ff7037"/><path d="m347.234375 149.40625h-91.234375l-20.015625 169.417969 157.316406-20.015625zm0 0" fill="#efe2dd"/><path d="m164.765625 149.40625-46.066406 149.402344 137.300781 20.015625v-169.417969zm0 0" fill="#fff5f5"/><path d="m393.300781 298.808594h-137.300781l-20.015625 169.421875 203.386719-20.015625zm0 0" fill="#fc0023"/><path d="m118.699219 298.808594-46.070313 149.40625 183.371094 20.015625v-169.421875zm0 0" fill="#ff7037"/><path d="m512 448.214844h-256l-20.015625 31.890625 20.015625 31.894531h256zm0 0" fill="#c9001c"/><path d="m0 448.214844h256v63.785156h-256zm0 0" fill="#fc0023"/></svg>