<svg width="87" height="80" viewBox="0 0 87 80" fill="none" xmlns="http://www.w3.org/2000/svg">
<circle cx="42" cy="40" r="40" fill="#00154F" fill-opacity="0.7"/>
<path d="M3.96387 58C6.37923 50.8223 8.65788 44.2598 10.7998 38.3125C12.9645 32.3652 15.1748 26.68 17.4307 21.2568H0.614258V14.3867H26.8643V18.3857C21.8285 29.8473 17.0205 43.0521 12.4404 58H3.96387Z" fill="#F4AF1B"/>
<path d="M63.9639 77C66.3792 69.8223 68.6579 63.2598 70.7998 57.3125C72.9645 51.3652 75.1748 45.68 77.4307 40.2568H60.6143V33.3867H86.8643V37.3857C81.8285 48.8473 77.0205 62.0521 72.4404 77H63.9639Z" fill="#F4AF1B"/>
<path d="M44.2031 68.5234C40.7917 68.5234 37.8229 67.4818 35.2969 65.3984C32.7969 63.3151 30.8828 60.4245 29.5547 56.7266C28.2266 53.0286 27.5625 48.7969 27.5625 44.0312C27.5625 38.3281 28.3307 33.3802 29.8672 29.1875C31.4297 24.9688 33.6172 21.7396 36.4297 19.5C39.2422 17.2344 42.4844 16.1016 46.1562 16.1016C48.3958 16.1016 50.5833 16.6094 52.7188 17.625C54.8542 18.6146 56.8464 20.0599 58.6953 21.9609L53.0703 27.9375L52.6016 28.4453L51.9375 27.8203C51.8854 27.2474 51.7812 26.7786 51.625 26.4141C51.4688 26.0495 51.0911 25.6198 50.4922 25.125C49.9453 24.6823 49.3333 24.3568 48.6562 24.1484C47.9792 23.9141 47.1458 23.7969 46.1562 23.7969C44.75 23.7969 43.3828 24.2526 42.0547 25.1641C40.7266 26.0755 39.5547 27.5599 38.5391 29.6172C37.5495 31.6484 36.8854 34.2917 36.5469 37.5469C37.6146 36.4792 38.9036 35.5938 40.4141 34.8906C41.9245 34.1615 43.3828 33.7969 44.7891 33.7969C47.5495 33.7969 50.0755 34.526 52.3672 35.9844C54.6589 37.4427 56.4688 39.474 57.7969 42.0781C59.151 44.6562 59.8281 47.5729 59.8281 50.8281C59.8281 54.1094 59.125 57.1042 57.7188 59.8125C56.3385 62.4948 54.4505 64.6172 52.0547 66.1797C49.6849 67.7422 47.0677 68.5234 44.2031 68.5234ZM44.3984 60.2812C45.6224 60.2812 46.7292 59.9167 47.7188 59.1875C48.7083 58.4323 49.4896 57.3516 50.0625 55.9453C50.6354 54.513 50.9219 52.8073 50.9219 50.8281C50.9219 48.849 50.5964 47.1693 49.9453 45.7891C49.2943 44.4089 48.4609 43.3932 47.4453 42.7422C46.4297 42.0651 45.375 41.7266 44.2812 41.7266C42.849 41.7266 41.4427 42.1693 40.0625 43.0547C38.7083 43.9141 37.5885 45.0729 36.7031 46.5312C36.7031 49.3438 37.0286 51.7917 37.6797 53.875C38.3568 55.9323 39.2682 57.5208 40.4141 58.6406C41.5859 59.7344 42.9141 60.2812 44.3984 60.2812Z" fill="#F4AF1B"/>
</svg>
